# xmcd CD database file
#
# Track frame offsets:
#	150
#	19770
#	48644
#	84210
#	120592
#	143917
#	190190
#	221912
#	263602
#	292265
#	329086
#
# Disc length: 4718 seconds
#
# Revision: 0
# Processed by: cddbd v1.5.2PL0 Copyright (c) Steve Scherf et al.
# Submitted via: CDex 1.51
#
DISCID=aa126c0b
DTITLE=Anima - Lemuria Emerging
DYEAR=2008
DGENRE=New Age
TTITLE0=Ancestral Pass-age
TTITLE1=Beloved Child
TTITLE2=Sixth Sun
TTITLE3=Awaken
TTITLE4=Yemaya's Dream
TTITLE5=Kingdom of the Stars
TTITLE6=Sancruary
TTITLE7=Shimmering
TTITLE8=Lemuria
TTITLE9=Crystalign Dragon
TTITLE10=Blue
EXTD=YEAR: 2008
EXTT0=
EXTT1=
EXTT2=
EXTT3=
EXTT4=
EXTT5=
EXTT6=
EXTT7=
EXTT8=
EXTT9=
EXTT10=
PLAYORDER=
